inDegrees=yes
name=ik_lifting_orientations
DataType=double
version=3
OpenSimVersion=4.5-2024-01-10-34fd6af
endheader
time	pelvis_tilt	pelvis_list	pelvis_rotation	pelvis_tx	pelvis_ty	pelvis_tz	hip_flexion_r	hip_adduction_r	hip_rotation_r	knee_angle_r	knee_angle_r_beta	ankle_angle_r	subtalar_angle_r	mtp_angle_r	hip_flexion_l	hip_adduction_l	hip_rotation_l	knee_angle_l	knee_angle_l_beta	ankle_angle_l	subtalar_angle_l	mtp_angle_l	lumbar_extension	lumbar_bending	lumbar_rotation	arm_flex_r	arm_add_r	arm_rot_r	elbow_flex_r	pro_sup_r	wrist_flex_r	wrist_dev_r	arm_flex_l	arm_add_l	arm_rot_l	elbow_flex_l	pro_sup_l	wrist_flex_l	wrist_dev_l
0.78	6.288476389102104	-32.05028911426451	-136.5587908530435	0	0.9399999998679526	0	45.42214148649018	-10.22658086516126	0	59.81960982671001	1.044049148734444	-5.092062725387791	0	0	45.42214148649018	-10.22658086516126	0	59.81960982671001	1.044049148734444	-5.092062725387791	0	0	-89.86088670800665	-44.81325908811431	-25.90145588023148	58.38066259878633	15.70866539070135	27.82803271720143	2.965696500364578	1.849359552856535	0	0	0	-12.20765077670575	0	88.18562227514347	1.849359552856535	0	0
0.79	5.497610197298045	-32.40337681291496	-138.4944194279945	0	0.9399999998679526	0	45.42194097405395	-10.22620485607107	0	59.81967712742392	1.044050323353491	-5.091863450912437	0	0	45.42194097405395	-10.22620485607107	0	59.81967712742392	1.044050323353491	-5.091863450912437	0	0	-89.82406399970803	-46.25649904224173	-25.433708358649	57.94971799272491	15.60876421792546	28.13286859965941	3.308597859736635	1.848748144759105	0	0	0	-12.20833022874077	0	88.18622205199142	1.848748144759105	0	0
0.8	5.089166147642704	-32.90568817538272	-139.4845921051385	0	0.9399999998679526	0	45.42173533925781	-10.22581852452152	0	59.81974597896387	1.044051525039558	-5.091658695430588	0	0	45.42173533925781	-10.22581852452152	0	59.81974597896387	1.044051525039558	-5.091658695430588	0	0	-89.56647746122647	-47.01717274252525	-24.40278639335747	57.30760304886708	14.85114753801924	28.04075402013072	3.819154870463933	1.848121636717424	0	0	0	-12.20902593966263	0	88.18683664148946	1.848121636717424	0	0
0.8100000000000001	4.862099825817303	-33.11648309023767	-139.9810823441244	0	0.9399999998679526	0	45.42141143470793	-10.22521075199899	0	59.81985440862307	1.044053417494118	-5.091336779324947	0	0	45.42141143470793	-10.22521075199899	0	59.81985440862307	1.044053417494118	-5.091336779324947	0	0	-88.85077201657319	-47.47119510620958	-23.12822854046301	56.53997376390186	14.25680807265526	28.02219824682393	4.279852506651958	1.847134726680766	0	0	0	-12.2101218719833	0	88.18780477678806	1.847134726680766	0	0
0.82	4.333490971019158	-33.34074434321511	-141.3647432586381	0	0.9399999998679526	0	45.42099845507622	-10.22443859164091	0	59.81999283057981	1.04405583341302	-5.090928286931335	0	0	45.42099845507622	-10.22443859164091	0	59.81999283057981	1.04405583341302	-5.090928286931335	0	0	-87.97319701143243	-48.6536693519576	-21.53528960909629	55.61655115094003	13.78570243390409	28.31990641669519	4.769623128209121	1.845875558281605	0	0	0	-12.21152085248434	0	88.18903999114337	1.845875558281605	0	0
0.83	3.612930062614001	-33.15651375853126	-142.9774089870861	0	0.9399999998679526	0	45.42060819307107	-10.22371305963832	0	59.82012402427996	1.044058123175046	-5.090545089895755	0	0	45.42060819307107	-10.22371305963832	0	59.82012402427996	1.044058123175046	-5.090545089895755	0	0	-86.6431103108949	-49.90066372897398	-19.39454387302695	54.8724532937927	13.29263446346958	28.6685559808083	5.148424433563007	1.844684058751838	0	0	0	-12.21284607715824	0	88.19020882406963	1.844684058751838	0	0
0.84	3.037256697899227	-32.78073414597593	-144.2073918251517	0	0.9399999998679526	0	45.42018822815881	-10.22293518949037	0	59.82026537265551	1.044060590169591	-5.090134778359652	0	0	45.42018822815881	-10.22293518949037	0	59.82026537265551	1.044060590169591	-5.090134778359652	0	0	-84.99023026003432	-50.80583994345253	-17.20677742284189	54.08255394156979	12.72901287169467	28.70030033371173	5.714776743239011	1.843401005131368	0	0	0	-12.21427384668264	0	88.19146746947149	1.843401005131368	0	0
0.85	2.663325671518997	-32.39723346014632	-144.9423922867669	0	0.9399999998679526	0	45.41980592232619	-10.222228156672	0	59.82039398579084	1.044062834892264	-5.08976214872522	0	0	45.41980592232619	-10.222228156672	0	59.82039398579084	1.044062834892264	-5.08976214872522	0	0	-83.40056017864285	-51.26839396517841	-15.12009931435173	53.29927226114049	12.01561628652941	28.61847191890397	6.457409982829756	1.842232970522984	0	0	0	-12.21557356484216	0	88.19261328393975	1.842232970522984	0	0
0.86	2.252450506203828	-31.98211565206594	-145.8031908905731	0	0.9399999998679526	0	45.41943769855953	-10.22154918223357	0	59.82051793857948	1.044064998276543	-5.089404714009472	0	0	45.41943769855953	-10.22154918223357	0	59.82051793857948	1.044064998276543	-5.089404714009472	0	0	-81.72535468721729	-51.79135361543244	-12.91037429370613	52.57546862449113	11.25945578863035	28.53142933835592	7.239336083031513	1.841107455400234	0	0	0	-12.21682635054236	0	88.19371738783686	1.841107455400234	0	0
0.87	1.821853954596675	-31.57446479212857	-146.722072606649	0	0.9399999998679526	0	45.41902685242232	-10.22079260378385	0	59.82065619712307	1.044067411343348	-5.089006704405381	0	0	45.41902685242232	-10.22079260378385	0	59.82065619712307	1.044067411343348	-5.089006704405381	0	0	-80.76483214864493	-52.38254442051225	-11.37493717817382	52.42153892246311	10.51438005043007	28.66435883972829	8.020408102625716	1.839851578309307	0	0	0	-12.21822424867247	0	88.19494937377733	1.839851578309307	0	0
0.88	1.409946822324046	-31.39321594073241	-147.6195041373783	0	0.9399999998679526	0	45.41857321347248	-10.2199570577834	0	59.82080851842185	1.044070069851532	-5.088567429293391	0	0	45.41857321347248	-10.2199570577834	0	59.82080851842185	1.044070069851532	-5.088567429293391	0	0	-80.01807790795306	-52.98810005341018	-10.13533036002348	52.17633355705326	9.852319757060375	28.84523238416549	8.773230160261777	1.838465733303141	0	0	0	-12.21976587457108	0	88.19630885513764	1.838465733303141	0	0
0.89	1.033373432574871	-31.36233991015838	-148.0945150527346	0	0.9399999998679526	0	45.41814287670019	-10.21916637016634	0	59.82095302166906	1.044072591908976	-5.088152194974728	0	0	45.41814287670019	-10.21916637016634	0	59.82095302166906	1.044072591908976	-5.088152194974728	0	0	-79.58051407797362	-53.19961887602287	-9.219614856498017	51.74405045087867	9.114359064765647	28.79340712717117	9.722373675628702	1.837150741097862	0	0	0	-12.22122888240694	0	88.197598831601	1.837150741097862	0	0
